<?xml version="1.0" encoding="utf-8"?>
<!-- Generator: Adobe Illustrator 18.1.1, SVG Export Plug-In . SVG Version: 6.00 Build 0)  -->
<!DOCTYPE svg PUBLIC "-//W3C//DTD SVG 1.1//EN" "http://www.w3.org/Graphics/SVG/1.1/DTD/svg11.dtd">
<svg version="1.1" id="Layer_1" xmlns="http://www.w3.org/2000/svg" xmlns:xlink="http://www.w3.org/1999/xlink" x="0px" y="0px"
	 viewBox="0 165 400 70" enable-background="new 0 165 400 70" xml:space="preserve">
<g>
	<path fill="#FF0000" d="M335.8,178h-20.8l-15.6,50.3h23.4l15.3-50.3H335.8z M152.9,189.1h-20.1l-14.2,39.2h21.5
		c0,0,7.8-19.9,8.2-20.7c0.8-0.7,3.2-2.4,5.8-4.1c3.1-1.9,5.7-2.6,6.9-2.3c-0.1,0.7-0.1,1.5-0.1,2.4c0,0.8,0,1.8,0.3,2.4
		c0.4,2.2,2.2,5.8,8.1,5.8c3.1,0,5.3-0.4,6.9-1.5c1.6-1.1,2.6-2.6,3.4-4.6l0,0c2.2-5.3,0.8-8.7-0.7-10.5c-1.6-2-3.7-2.8-3.9-2.8
		c-5.4-1.9-11.4-1.6-17.6,0.8c-1.6,0.7-3.1,1.4-4.3,2c0.1-0.3,2.3-6.4,2.3-6.4h-2.4V189.1z M249.6,189.1h-13.3c0,0-18,18-20.3,20.4
		c-1.4-2.7-9.9-20.4-9.9-20.4h-28l13,24.5l8,14.9h0.9h15.4l38-39.4C253.5,189.1,249.6,189.1,249.6,189.1z M7.8,198
		c-4.1,4.1-6.4,8.9-6.2,13.5c0.1,4.7,2.6,9.2,6.9,12.4c4.9,3.7,16.2,8.7,37.9,2.4h0.1l0,0l3.5-1.8l2.7-1.6c1.5-1.1,4.3-3.7,4.5-3.7
		l1.4-1.2l-4.6-4.7l-1.2,0.7c-8.9,5.4-17.4,6.8-23.3,3.8c-3-1.5-5-4.2-5.1-6.9c-0.3-3.8,1.2-7.2,4.2-9.5c3.8-2.8,9.5-3.4,15.4-1.5
		c-0.1,0.5-0.1,1.2-0.1,1.9c0,0,0,0.1,0,0.3c0,1.6,0.7,3.9,3.7,5.7h0.1h0.1c6.4,2.6,10.7,0,12.6-3.1c1.1-1.9,1.5-4.2,0.9-6.2
		c-0.5-1.9-1.8-3.5-3.5-4.6l0.3,0.1c-3.5-2.7-6.6-4.3-10-5.3c-3.4-0.9-6.8-1.4-10.7-1.6C25.6,187.2,14.7,191.1,7.8,198z
		 M347.8,191.7c-7.4,3.2-13.1,8.7-15.3,14.3c-0.5,1.5-0.8,3-0.8,4.5c0,4.1,2.2,7.7,6.2,10.7c4.7,3.5,11.9,5.8,20,6.5
		c8,0.7,16.5-0.4,23.7-3c8-3,13.4-7.6,15.4-13c2.2-5.9,0.4-12-4.9-16.4c-5-4.3-12.4-7.2-20.8-8C364.2,186.7,355.8,188.2,347.8,191.7
		z M356.9,216.3c-0.8-1.9-0.7-4.6,0.3-7.4c1.1-3,3-5.8,5.3-8c2.2-2,4.6-3.1,6.6-3.1c2.3,0,3.2,1.4,3.8,2.6c0.8,1.9,0.7,4.6-0.3,7.4
		c-1.1,3-2.8,5.8-5.3,8c-2.2,2-4.6,3.1-6.6,3.1C358.4,218.7,357.4,217.4,356.9,216.3z M93.4,187.4c-13.3,0.9-28.5,9.2-31.1,21.4v0.1
		v0.1c-0.5,9.9,4.6,16.6,14.9,19.2c7.8,2,17.2,2.2,22.4,1.2c3.2-0.7,6.4-1.8,9.5-3.5c2.7-1.5,5.4-3.5,8.2-5.9l1.5-1.4l-4.2-3.2
		l-1.1,0.8c0,0-3.1,2.3-6.9,3.7c-4.2,1.4-10.8,2.6-14.7,2.3h-0.1h-0.1c-4.5,0.1-7.4-2.7-8.4-4.5c-0.4-0.7-0.5-1.6-0.5-2.7
		c0-0.8,0.1-1.5,0.1-2c2.2,0,36.9,0,36.9,0l0.1-1.5c0.1-0.9,0.1-1.8,0.1-2.6c0-5.9-1.9-11-5.5-14.7
		C109.9,189.2,102.1,186.8,93.4,187.4z M102.1,199.1c1.1,1.1,1.6,2.4,1.9,3.5c-2.8,0-14.5,0-18.5,0c1.8-2.4,4.9-5.7,9.9-5.8
		C98.3,197,100.6,197.6,102.1,199.1z M273.8,187.4c-13.3,0.9-28.5,9.2-31.1,21.4v0.1v0.1c-0.5,9.9,4.6,16.6,14.9,19.2
		c7.8,2,17.2,2.2,22.4,1.2c3.2-0.7,6.4-1.8,9.5-3.5c2.8-1.5,5.4-3.5,8.2-5.9l1.5-1.4l-4.2-3.2l-1.1,0.8c0,0-3,2.3-6.9,3.7
		c-4.2,1.4-10.8,2.6-14.7,2.3h-0.1h-0.1c-4.5,0.1-7.4-2.7-8.4-4.5c-0.4-0.7-0.5-1.6-0.5-2.7c0-0.8,0.1-1.5,0.1-2
		c2.2,0,36.9,0,36.9,0l0.1-1.5c0.1-0.9,0.1-1.8,0.1-2.6c0-5.9-1.9-11-5.5-14.7C290.3,189.2,282.6,186.8,273.8,187.4z M282.6,199.1
		c1.1,1.1,1.6,2.4,1.9,3.5c-2.8,0-14.5,0-18.5,0c1.8-2.4,4.9-5.7,9.9-5.8C278.7,197,281,197.6,282.6,199.1z M301.6,170.2H281
		l-11.5,15.7h14.7l22.7-15.7H301.6z"/>
</g>
</svg>
